<svg width="181" height="60" viewBox="0 0 181 60" fill="none" xmlns="http://www.w3.org/2000/svg">
<circle cx="30" cy="30" r="20" stroke="url(#paint0_linear_33_417)"/>
<circle cx="30" cy="30" r="20" stroke="url(#paint1_linear_33_417)"/>
<g filter="url(#filter0_f_33_417)">
<circle cx="30" cy="30" r="20" fill="url(#paint2_linear_33_417)" fill-opacity="0.7"/>
</g>
<path fill-rule="evenodd" clip-rule="evenodd" d="M29.5126 15.102C29.8147 14.9437 30.1759 14.9456 30.4767 15.1069C40.1463 20.2955 42.5305 33.1056 35.3703 41.4206L35.1889 41.6313L32.34 35.5266C34.4911 34.6146 36 32.4835 36 30C36 26.6863 33.3137 24 30 24C26.6863 24 24 26.6863 24 30C24 32.4835 25.5089 34.6146 27.66 35.5266L24.8027 41.6492L24.6838 41.5153C17.3233 33.2348 19.6985 20.2427 29.5126 15.102ZM29.124 35.9365L25.1973 44.3508L23.5626 42.5119C23.4345 42.3677 23.309 42.2222 23.1863 42.0754L22.7427 43.3258C22.256 44.6976 20.4048 44.9103 19.6198 43.6846L16.9488 39.5146C15.8315 37.7703 15.9735 35.5032 17.2995 33.9118L18.9544 31.9259C18.2981 24.7709 21.8198 17.4382 28.8166 13.7732C29.5595 13.3841 30.4471 13.3888 31.1859 13.7852C38.0693 17.4787 41.5578 24.7242 40.9616 31.8252L42.7005 33.9118C44.0265 35.5032 44.1685 37.7703 43.0512 39.5146L40.3802 43.6846C39.5952 44.9103 37.744 44.6976 37.2573 43.3258L36.8035 42.0465C36.7064 42.1649 36.6075 42.2826 36.507 42.3994L34.8111 44.3688L30.8761 35.9365C30.5901 35.9783 30.2976 36 30 36C29.7024 36 29.4099 35.9783 29.124 35.9365ZM38.671 42.8243L37.8811 40.5977C39.297 38.4905 40.2221 36.1895 40.6823 33.833L41.5481 34.8721C42.4554 35.9609 42.5525 37.5121 41.7881 38.7056L39.1171 42.8756C39.005 43.0507 38.7405 43.0203 38.671 42.8243ZM22.1017 40.6461C20.6675 38.5553 19.7245 36.2659 19.2472 33.9177L18.4519 34.8721C17.5446 35.9609 17.4475 37.5121 18.2119 38.7056L20.8829 42.8756C20.995 43.0507 21.2595 43.0203 21.329 42.8243L22.1017 40.6461Z" fill="white"/>
<path d="M175.14 17.6118C176.593 17.6118 177.785 18.0773 178.716 19.0084C179.647 19.9209 180.112 21.1685 180.112 22.7514V31.9414C180.112 32.0345 180.075 32.1183 180.001 32.1927C179.945 32.2486 179.87 32.2765 179.777 32.2765H175.811C175.717 32.2765 175.634 32.2486 175.559 32.1927C175.503 32.1183 175.475 32.0345 175.475 31.9414V23.757C175.475 23.1239 175.298 22.6024 174.945 22.1928C174.591 21.7831 174.135 21.5782 173.576 21.5782C172.999 21.5782 172.533 21.7831 172.179 22.1928C171.825 22.5838 171.649 23.1052 171.649 23.757V31.9414C171.649 32.0345 171.611 32.1183 171.537 32.1927C171.481 32.2486 171.407 32.2765 171.313 32.2765H167.347C167.254 32.2765 167.17 32.2486 167.096 32.1927C167.04 32.1183 167.012 32.0345 167.012 31.9414V18.1704C167.012 18.0773 167.04 18.0028 167.096 17.947C167.17 17.8725 167.254 17.8352 167.347 17.8352H171.313C171.407 17.8352 171.481 17.8725 171.537 17.947C171.611 18.0028 171.649 18.0773 171.649 18.1704V19.2039C171.649 19.2784 171.658 19.325 171.677 19.3436C171.714 19.3436 171.751 19.3157 171.788 19.2598C172.496 18.1611 173.613 17.6118 175.14 17.6118Z" fill="white"/>
<path d="M165.034 23.7849C165.127 24.3436 165.155 25.0791 165.118 25.9916C165.099 26.2151 164.978 26.3268 164.755 26.3268H156.235C156.198 26.3268 156.161 26.3454 156.123 26.3827C156.086 26.4013 156.077 26.4292 156.095 26.4665C156.133 26.6713 156.226 26.9413 156.375 27.2765C156.598 27.6676 156.933 27.9842 157.38 28.2263C157.827 28.4683 158.377 28.5894 159.028 28.5894C160.202 28.5894 161.123 28.2076 161.794 27.4441C161.868 27.351 161.952 27.3045 162.045 27.3045C162.138 27.3045 162.213 27.3417 162.269 27.4162L164.419 29.8743C164.494 29.9302 164.531 30.0046 164.531 30.0978C164.531 30.1722 164.494 30.2467 164.419 30.3212C163.768 31.0289 162.958 31.5689 161.989 31.9413C161.04 32.3138 159.997 32.5 158.861 32.5C157.166 32.5 155.723 32.1369 154.531 31.4106C153.358 30.6657 152.511 29.6322 151.989 28.31C151.598 27.379 151.403 26.2151 151.403 24.8184C151.403 23.8501 151.552 22.919 151.85 22.0251C152.334 20.6471 153.125 19.567 154.224 18.7849C155.341 17.9842 156.663 17.5838 158.19 17.5838C159.419 17.5838 160.518 17.8538 161.487 18.3939C162.455 18.9153 163.237 19.6508 163.833 20.6006C164.447 21.5317 164.848 22.5931 165.034 23.7849ZM158.19 21.5782C157.222 21.5782 156.58 22.0344 156.263 22.9469C156.189 23.1518 156.142 23.3473 156.123 23.5335C156.086 23.6266 156.123 23.6732 156.235 23.6732H160.202C160.276 23.6732 160.313 23.6359 160.313 23.5614C160.313 23.4125 160.276 23.2263 160.202 23.0028C160.071 22.5372 159.829 22.1834 159.475 21.9413C159.14 21.6993 158.712 21.5782 158.19 21.5782Z" fill="white"/>
<path d="M138.323 32.2765C138.23 32.2765 138.146 32.2486 138.071 32.1927C138.016 32.1182 137.988 32.0345 137.988 31.9413V13.0587C137.988 12.9656 138.016 12.8911 138.071 12.8352C138.146 12.7607 138.23 12.7235 138.323 12.7235H142.289C142.382 12.7235 142.457 12.7607 142.513 12.8352C142.587 12.8911 142.625 12.9656 142.625 13.0587V21.7458C142.625 21.8017 142.643 21.8389 142.68 21.8576C142.718 21.8576 142.755 21.8389 142.792 21.8017L145.837 18.0307C145.949 17.9004 146.088 17.8352 146.256 17.8352H150.809C150.995 17.8352 151.088 17.9004 151.088 18.0307C151.088 18.0866 151.06 18.1611 151.004 18.2542L147.345 22.9749C147.308 23.0307 147.308 23.0959 147.345 23.1704L151.507 31.8855C151.544 31.96 151.563 32.0158 151.563 32.0531C151.563 32.202 151.461 32.2765 151.256 32.2765H147.122C146.936 32.2765 146.805 32.1927 146.731 32.0251L144.189 26.0754C144.17 26.0382 144.133 26.0196 144.077 26.0196C144.04 26.0009 144.012 26.0102 143.993 26.0475L142.68 27.919C142.643 27.9935 142.625 28.0494 142.625 28.0866V31.9413C142.625 32.0345 142.587 32.1182 142.513 32.1927C142.457 32.2486 142.382 32.2765 142.289 32.2765H138.323Z" fill="white"/>
<path d="M129.032 32.5C127.356 32.5 125.931 32.0531 124.758 31.1592C123.585 30.2654 122.803 29.0549 122.412 27.5279C122.188 26.7644 122.077 25.9265 122.077 25.014C122.077 23.9898 122.198 23.0866 122.44 22.3045C122.868 20.8334 123.659 19.6881 124.814 18.8687C125.987 18.0307 127.402 17.6118 129.06 17.6118C130.699 17.6118 132.086 18.0307 133.222 18.8687C134.358 19.6881 135.149 20.824 135.596 22.2766C135.857 23.1145 135.987 24.0084 135.987 24.9581C135.987 25.8147 135.885 26.6341 135.68 27.4162C135.289 28.9805 134.507 30.2188 133.334 31.1313C132.16 32.0438 130.726 32.5 129.032 32.5ZM129.032 28.5335C129.572 28.5335 130.019 28.3659 130.373 28.0307C130.727 27.6769 130.987 27.2021 131.155 26.6062C131.267 26.122 131.322 25.5913 131.322 25.014C131.322 24.4553 131.257 23.9153 131.127 23.3939C130.978 22.8166 130.727 22.3697 130.373 22.0531C130.019 21.7365 129.572 21.5782 129.032 21.5782C127.952 21.5782 127.244 22.1834 126.909 23.3939C126.797 23.8408 126.741 24.3808 126.741 25.014C126.741 25.5913 126.797 26.122 126.909 26.6062C127.058 27.2021 127.309 27.6769 127.663 28.0307C128.036 28.3659 128.492 28.5335 129.032 28.5335Z" fill="white"/>
<path d="M120.657 21.2151C120.657 21.3082 120.619 21.392 120.545 21.4665C120.489 21.5223 120.415 21.5503 120.321 21.5503H117.78C117.686 21.5503 117.64 21.5968 117.64 21.6899V26.7737C117.64 27.8352 118.068 28.3659 118.925 28.3659H119.958C120.051 28.3659 120.126 28.4031 120.182 28.4776C120.256 28.5335 120.294 28.608 120.294 28.7011V31.9413C120.294 32.1462 120.182 32.2672 119.958 32.3044C119.064 32.3417 118.413 32.3603 118.003 32.3603C116.383 32.3603 115.182 32.1089 114.4 31.6061C113.618 31.0847 113.217 30.1071 113.199 28.6732V21.6899C113.199 21.5968 113.152 21.5503 113.059 21.5503H111.467C111.374 21.5503 111.29 21.5223 111.215 21.4665C111.159 21.392 111.132 21.3082 111.132 21.2151V18.1704C111.132 18.0773 111.159 18.0028 111.215 17.9469C111.29 17.8724 111.374 17.8352 111.467 17.8352H113.059C113.152 17.8352 113.199 17.7886 113.199 17.6955V14.3156C113.199 14.2225 113.227 14.148 113.282 14.0922C113.357 14.0177 113.441 13.9804 113.534 13.9804H117.305C117.398 13.9804 117.472 14.0177 117.528 14.0922C117.603 14.148 117.64 14.2225 117.64 14.3156V17.6955C117.64 17.7886 117.686 17.8352 117.78 17.8352H120.321C120.415 17.8352 120.489 17.8724 120.545 17.9469C120.619 18.0028 120.657 18.0773 120.657 18.1704V21.2151Z" fill="white"/>
<path d="M108.462 17.6396C109.132 17.6396 109.654 17.7607 110.026 18.0028C110.175 18.0959 110.231 18.2356 110.194 18.4218L109.551 22.3044C109.532 22.5279 109.402 22.5931 109.16 22.5C108.825 22.4255 108.508 22.3882 108.21 22.3882C107.894 22.3882 107.652 22.4069 107.484 22.4441C106.907 22.5186 106.413 22.7421 106.004 23.1145C105.613 23.4869 105.417 23.9804 105.417 24.595V31.9413C105.417 32.0344 105.38 32.1182 105.305 32.1927C105.249 32.2486 105.175 32.2765 105.082 32.2765H101.115C101.022 32.2765 100.938 32.2486 100.864 32.1927C100.808 32.1182 100.78 32.0344 100.78 31.9413V18.1704C100.78 18.0773 100.808 18.0028 100.864 17.9469C100.938 17.8724 101.022 17.8352 101.115 17.8352H105.082C105.175 17.8352 105.249 17.8724 105.305 17.9469C105.38 18.0028 105.417 18.0773 105.417 18.1704V19.0642C105.417 19.1201 105.436 19.1573 105.473 19.176C105.51 19.1946 105.538 19.176 105.557 19.1201C106.302 18.1331 107.27 17.6396 108.462 17.6396Z" fill="white"/>
<path d="M91.8652 17.6118C93.1128 17.6118 94.2395 17.8259 95.245 18.2542C96.2506 18.6639 97.0421 19.2412 97.6193 19.9861C98.1966 20.7123 98.4853 21.5224 98.4853 22.4162V31.9414C98.4853 32.0345 98.448 32.1183 98.3735 32.1927C98.3177 32.2486 98.2432 32.2765 98.1501 32.2765H94.1836C94.0905 32.2765 94.0067 32.2486 93.9322 32.1927C93.8763 32.1183 93.8484 32.0345 93.8484 31.9414V30.9637C93.8484 30.8892 93.8298 30.852 93.7925 30.852C93.7553 30.8333 93.718 30.8613 93.6808 30.9358C92.9732 31.9786 91.7627 32.5 90.0495 32.5C88.5598 32.5 87.368 32.1555 86.4741 31.4665C85.5989 30.7589 85.1613 29.7253 85.1613 28.3659C85.1613 26.932 85.6547 25.824 86.6417 25.0419C87.6473 24.2598 89.0998 23.8687 90.9992 23.8687H93.7087C93.8018 23.8687 93.8484 23.8222 93.8484 23.7291V23.1983C93.8484 22.6955 93.6808 22.3045 93.3456 22.0252C93.0104 21.7272 92.5449 21.5782 91.949 21.5782C91.502 21.5782 91.111 21.662 90.7758 21.8296C90.4592 21.9972 90.2544 22.2114 90.1613 22.4721C90.0681 22.6769 89.9378 22.77 89.7702 22.7514L85.7478 22.2207C85.5244 22.1834 85.4126 22.0996 85.4126 21.9693C85.4871 21.1499 85.8037 20.4144 86.3624 19.7626C86.9397 19.0922 87.7032 18.5708 88.6529 18.1983C89.6212 17.8073 90.692 17.6118 91.8652 17.6118ZM91.4182 29.176C92.1259 29.176 92.7031 28.9991 93.1501 28.6453C93.6156 28.2728 93.8484 27.7887 93.8484 27.1928V26.5224C93.8484 26.4293 93.8018 26.3827 93.7087 26.3827H92.0328C91.3251 26.3827 90.7758 26.5037 90.3847 26.7458C90.0123 26.9879 89.8261 27.351 89.8261 27.8352C89.8261 28.2449 89.9657 28.5708 90.2451 28.8129C90.5244 29.0549 90.9154 29.176 91.4182 29.176Z" fill="white"/>
<path d="M83.9674 21.2151C83.9674 21.3082 83.9301 21.392 83.8557 21.4665C83.7998 21.5223 83.7253 21.5503 83.6322 21.5503H81.0903C80.9972 21.5503 80.9506 21.5968 80.9506 21.6899V26.7737C80.9506 27.8352 81.3789 28.3659 82.2355 28.3659H83.2691C83.3622 28.3659 83.4367 28.4031 83.4925 28.4776C83.567 28.5335 83.6043 28.608 83.6043 28.7011V31.9413C83.6043 32.1462 83.4925 32.2672 83.2691 32.3044C82.3752 32.3417 81.7234 32.3603 81.3138 32.3603C79.6937 32.3603 78.4925 32.1089 77.7104 31.6061C76.9283 31.0847 76.5279 30.1071 76.5093 28.6732V21.6899C76.5093 21.5968 76.4627 21.5503 76.3696 21.5503H74.7775C74.6843 21.5503 74.6005 21.5223 74.5261 21.4665C74.4702 21.392 74.4423 21.3082 74.4423 21.2151V18.1704C74.4423 18.0773 74.4702 18.0028 74.5261 17.9469C74.6005 17.8724 74.6843 17.8352 74.7775 17.8352H76.3696C76.4627 17.8352 76.5093 17.7886 76.5093 17.6955V14.3156C76.5093 14.2225 76.5372 14.148 76.5931 14.0922C76.6676 14.0177 76.7514 13.9804 76.8445 13.9804H80.6154C80.7085 13.9804 80.783 14.0177 80.8389 14.0922C80.9134 14.148 80.9506 14.2225 80.9506 14.3156V17.6955C80.9506 17.7886 80.9972 17.8352 81.0903 17.8352H83.6322C83.7253 17.8352 83.7998 17.8724 83.8557 17.9469C83.9301 18.0028 83.9674 18.0773 83.9674 18.1704V21.2151Z" fill="white"/>
<path d="M65.6257 32.5C64.0801 32.5 62.73 32.2579 61.5754 31.7737C60.4395 31.2709 59.5549 30.5633 58.9218 29.6508C58.3073 28.7197 58 27.649 58 26.4385V25.9078C58 25.8147 58.0279 25.7402 58.0838 25.6843C58.1583 25.6099 58.2421 25.5726 58.3352 25.5726H62.2179C62.311 25.5726 62.3855 25.6099 62.4413 25.6843C62.5158 25.7402 62.5531 25.8147 62.5531 25.9078V26.243C62.5531 26.8575 62.8603 27.3976 63.4749 27.8631C64.0894 28.31 64.9181 28.5335 65.9609 28.5335C66.7803 28.5335 67.3855 28.3566 67.7765 28.0028C68.1676 27.649 68.3631 27.2393 68.3631 26.7737C68.3631 26.4013 68.2421 26.1033 68 25.8799C67.7765 25.6378 67.4693 25.4423 67.0782 25.2933C66.6871 25.1257 66.0819 24.9022 65.2626 24.6229C65.1508 24.567 65.0391 24.5298 64.9274 24.5112C64.8156 24.4739 64.7132 24.4367 64.6201 24.3994C63.4097 24.0084 62.3575 23.5894 61.4637 23.1424C60.5698 22.6769 59.8063 22.0438 59.1732 21.243C58.54 20.4236 58.2235 19.4181 58.2235 18.2263C58.2235 17.0717 58.5214 16.0661 59.1173 15.2095C59.7318 14.3343 60.5791 13.6639 61.6592 13.1983C62.7393 12.7328 63.959 12.5 65.3184 12.5C66.7523 12.5 68.0372 12.7607 69.1732 13.2821C70.3277 13.8035 71.2309 14.5391 71.8827 15.4888C72.5344 16.4385 72.8603 17.5279 72.8603 18.757V19.148C72.8603 19.2411 72.8231 19.3249 72.7486 19.3994C72.6927 19.4553 72.6182 19.4832 72.5251 19.4832H68.6424C68.5493 19.4832 68.4655 19.4553 68.3911 19.3994C68.3352 19.3249 68.3073 19.2411 68.3073 19.148V18.9525C68.3073 18.3007 68.0186 17.7235 67.4413 17.2207C66.8641 16.7179 66.0912 16.4665 65.1229 16.4665C64.3966 16.4665 63.8287 16.6155 63.419 16.9134C63.0093 17.2114 62.8045 17.6303 62.8045 18.1704C62.8045 18.5801 62.9348 18.9246 63.1955 19.2039C63.4562 19.4646 63.8566 19.716 64.3966 19.9581C64.9553 20.1816 65.8026 20.4795 66.9385 20.8519C68.2421 21.2989 69.257 21.6899 69.9832 22.0251C70.7095 22.3603 71.3892 22.9097 72.0223 23.6732C72.6741 24.4181 73 25.405 73 26.6341C73 27.8445 72.6927 28.8873 72.0782 29.7626C71.4637 30.6378 70.5978 31.3175 69.4804 31.8017C68.3817 32.2672 67.0968 32.5 65.6257 32.5Z" fill="white"/>
<path d="M62.2271 43.8828C62.2271 43.7334 62.2036 43.6016 62.1567 43.4873C62.1128 43.3701 62.0337 43.2646 61.9194 43.1709C61.8081 43.0771 61.6528 42.9878 61.4536 42.9028C61.2573 42.8179 61.0083 42.7314 60.7065 42.6436C60.3901 42.5498 60.1045 42.4458 59.8496 42.3315C59.5947 42.2144 59.3765 42.0811 59.1948 41.9316C59.0132 41.7822 58.874 41.6108 58.7773 41.4175C58.6807 41.2241 58.6323 41.0029 58.6323 40.7539C58.6323 40.5049 58.6836 40.2749 58.7861 40.064C58.8887 39.853 59.0352 39.6699 59.2256 39.5146C59.4189 39.3564 59.6489 39.2334 59.9155 39.1455C60.1821 39.0576 60.4795 39.0137 60.8076 39.0137C61.2881 39.0137 61.6953 39.106 62.0293 39.2905C62.3662 39.4722 62.6226 39.7109 62.7983 40.0068C62.9741 40.2998 63.062 40.6133 63.062 40.9473H62.2183C62.2183 40.707 62.167 40.4946 62.0645 40.3101C61.9619 40.1226 61.8066 39.9761 61.5986 39.8706C61.3906 39.7622 61.127 39.708 60.8076 39.708C60.5059 39.708 60.2568 39.7534 60.0605 39.8442C59.8643 39.9351 59.7178 40.0581 59.6211 40.2134C59.5273 40.3687 59.4805 40.5459 59.4805 40.7451C59.4805 40.8799 59.5083 41.0029 59.564 41.1143C59.6226 41.2227 59.7119 41.3237 59.832 41.4175C59.9551 41.5112 60.1104 41.5977 60.2979 41.6768C60.4883 41.7559 60.7153 41.832 60.979 41.9053C61.3423 42.0078 61.6558 42.1221 61.9194 42.248C62.1831 42.374 62.3999 42.5161 62.5698 42.6743C62.7427 42.8296 62.8701 43.0068 62.9521 43.2061C63.0371 43.4023 63.0796 43.625 63.0796 43.874C63.0796 44.1348 63.0269 44.3706 62.9214 44.5815C62.8159 44.7925 62.665 44.9727 62.4688 45.1221C62.2725 45.2715 62.0366 45.3872 61.7612 45.4692C61.4888 45.5483 61.1841 45.5879 60.8472 45.5879C60.5513 45.5879 60.2598 45.5469 59.9727 45.4648C59.6885 45.3828 59.4292 45.2598 59.1948 45.0957C58.9634 44.9316 58.7773 44.7295 58.6367 44.4893C58.499 44.2461 58.4302 43.9648 58.4302 43.6455H59.2739C59.2739 43.8652 59.3164 44.0542 59.4014 44.2124C59.4863 44.3677 59.6021 44.4966 59.7485 44.5991C59.8979 44.7017 60.0664 44.7778 60.2539 44.8276C60.4443 44.8745 60.6421 44.8979 60.8472 44.8979C61.1431 44.8979 61.3936 44.8569 61.5986 44.7749C61.8037 44.6929 61.959 44.5757 62.0645 44.4233C62.1729 44.271 62.2271 44.0908 62.2271 43.8828ZM64.9209 40.7451V45.5H64.1035V40.7451H64.9209ZM64.042 39.4839C64.042 39.3521 64.0815 39.2407 64.1606 39.1499C64.2427 39.0591 64.3628 39.0137 64.521 39.0137C64.6763 39.0137 64.7949 39.0591 64.877 39.1499C64.9619 39.2407 65.0044 39.3521 65.0044 39.4839C65.0044 39.6099 64.9619 39.7183 64.877 39.8091C64.7949 39.897 64.6763 39.9409 64.521 39.9409C64.3628 39.9409 64.2427 39.897 64.1606 39.8091C64.0815 39.7183 64.042 39.6099 64.042 39.4839ZM67.0347 41.6899V45.5H66.2173V40.7451H66.9907L67.0347 41.6899ZM66.8677 42.9424L66.4897 42.9292C66.4927 42.604 66.5352 42.3037 66.6172 42.0283C66.6992 41.75 66.8208 41.5083 66.9819 41.3032C67.1431 41.0981 67.3438 40.9399 67.584 40.8286C67.8242 40.7144 68.1025 40.6572 68.4189 40.6572C68.6416 40.6572 68.8467 40.6895 69.0342 40.7539C69.2217 40.8154 69.3843 40.9136 69.522 41.0483C69.6597 41.1831 69.7666 41.356 69.8428 41.5669C69.9189 41.7778 69.957 42.0327 69.957 42.3315V45.5H69.144V42.3711C69.144 42.1221 69.1016 41.9229 69.0166 41.7734C68.9346 41.624 68.8174 41.5156 68.665 41.4482C68.5127 41.3779 68.334 41.3428 68.1289 41.3428C67.8887 41.3428 67.688 41.3853 67.5269 41.4702C67.3657 41.5552 67.2368 41.6724 67.1401 41.8218C67.0435 41.9712 66.9731 42.1426 66.9292 42.3359C66.8882 42.5264 66.8677 42.7285 66.8677 42.9424ZM69.9482 42.4941L69.4033 42.6611C69.4062 42.4004 69.4487 42.1499 69.5308 41.9097C69.6157 41.6694 69.7373 41.4556 69.8955 41.2681C70.0566 41.0806 70.2544 40.9326 70.4888 40.8242C70.7231 40.7129 70.9912 40.6572 71.293 40.6572C71.5479 40.6572 71.7734 40.6909 71.9697 40.7583C72.1689 40.8257 72.3359 40.9297 72.4707 41.0703C72.6084 41.208 72.7124 41.3853 72.7827 41.6021C72.853 41.8188 72.8882 42.0767 72.8882 42.3755V45.5H72.0708V42.3667C72.0708 42.1001 72.0283 41.8936 71.9434 41.7471C71.8613 41.5977 71.7441 41.4937 71.5918 41.4351C71.4424 41.3735 71.2637 41.3428 71.0557 41.3428C70.877 41.3428 70.7188 41.3735 70.5811 41.4351C70.4434 41.4966 70.3276 41.5815 70.2339 41.6899C70.1401 41.7954 70.0684 41.917 70.0186 42.0547C69.9717 42.1924 69.9482 42.3389 69.9482 42.4941ZM74.9316 41.6592V47.3281H74.1143V40.7451H74.8613L74.9316 41.6592ZM78.1353 43.083V43.1753C78.1353 43.521 78.0942 43.8418 78.0122 44.1377C77.9302 44.4307 77.8101 44.6855 77.6519 44.9023C77.4966 45.1191 77.3047 45.2876 77.0762 45.4077C76.8477 45.5278 76.5854 45.5879 76.2896 45.5879C75.9878 45.5879 75.7212 45.5381 75.4897 45.4385C75.2583 45.3389 75.062 45.1938 74.9009 45.0034C74.7397 44.813 74.6108 44.5845 74.5142 44.3179C74.4204 44.0513 74.356 43.751 74.3208 43.417V42.9248C74.356 42.5732 74.4219 42.2583 74.5186 41.98C74.6152 41.7017 74.7427 41.4644 74.9009 41.2681C75.062 41.0688 75.2568 40.918 75.4854 40.8154C75.7139 40.71 75.9775 40.6572 76.2764 40.6572C76.5752 40.6572 76.8403 40.7158 77.0718 40.833C77.3032 40.9473 77.498 41.1113 77.6562 41.3252C77.8145 41.5391 77.9331 41.7954 78.0122 42.0942C78.0942 42.3901 78.1353 42.7197 78.1353 43.083ZM77.3179 43.1753V43.083C77.3179 42.8457 77.293 42.623 77.2432 42.415C77.1934 42.2041 77.1157 42.0195 77.0103 41.8613C76.9077 41.7002 76.7759 41.5742 76.6147 41.4834C76.4536 41.3896 76.2617 41.3428 76.0391 41.3428C75.834 41.3428 75.6553 41.3779 75.5029 41.4482C75.3535 41.5186 75.2261 41.6138 75.1206 41.7339C75.0151 41.8511 74.9287 41.9858 74.8613 42.1382C74.7969 42.2876 74.7485 42.4429 74.7163 42.604V43.7422C74.7749 43.9473 74.8569 44.1406 74.9624 44.3223C75.0679 44.501 75.2085 44.646 75.3843 44.7573C75.5601 44.8657 75.7812 44.9199 76.0479 44.9199C76.2676 44.9199 76.4565 44.8745 76.6147 44.7837C76.7759 44.6899 76.9077 44.5625 77.0103 44.4014C77.1157 44.2402 77.1934 44.0557 77.2432 43.8477C77.293 43.6367 77.3179 43.4126 77.3179 43.1753ZM80.0557 38.75V45.5H79.2383V38.75H80.0557ZM83.334 45.5879C83.0029 45.5879 82.7026 45.5322 82.4331 45.4209C82.1665 45.3066 81.9365 45.147 81.7432 44.9419C81.5527 44.7368 81.4062 44.4937 81.3037 44.2124C81.2012 43.9312 81.1499 43.6235 81.1499 43.2896V43.105C81.1499 42.7183 81.207 42.374 81.3213 42.0723C81.4355 41.7676 81.5908 41.5098 81.7871 41.2988C81.9834 41.0879 82.2061 40.9282 82.4551 40.8198C82.7041 40.7114 82.9619 40.6572 83.2285 40.6572C83.5684 40.6572 83.8613 40.7158 84.1074 40.833C84.3564 40.9502 84.5601 41.1143 84.7183 41.3252C84.8765 41.5332 84.9937 41.7793 85.0698 42.0635C85.146 42.3447 85.1841 42.6523 85.1841 42.9863V43.3511H81.6333V42.6875H84.3711V42.626C84.3594 42.415 84.3154 42.21 84.2393 42.0107C84.166 41.8115 84.0488 41.6475 83.8877 41.5186C83.7266 41.3896 83.5068 41.3252 83.2285 41.3252C83.0439 41.3252 82.874 41.3647 82.7188 41.4438C82.5635 41.52 82.4302 41.6343 82.3188 41.7866C82.2075 41.939 82.1211 42.125 82.0596 42.3447C81.998 42.5645 81.9673 42.8179 81.9673 43.105V43.2896C81.9673 43.5151 81.998 43.7275 82.0596 43.9268C82.124 44.123 82.2163 44.2959 82.3364 44.4453C82.4595 44.5947 82.6074 44.7119 82.7803 44.7969C82.9561 44.8818 83.1553 44.9243 83.3779 44.9243C83.665 44.9243 83.9082 44.8657 84.1074 44.7485C84.3066 44.6313 84.481 44.4746 84.6304 44.2783L85.1226 44.6694C85.02 44.8247 84.8896 44.9727 84.7314 45.1133C84.5732 45.2539 84.3784 45.3682 84.147 45.4561C83.9185 45.5439 83.6475 45.5879 83.334 45.5879ZM89.5479 41.9492L90.5059 41.2681C90.6904 41.1421 90.8325 41.0161 90.9321 40.8901C91.0347 40.7612 91.0859 40.5854 91.0859 40.3628C91.0859 40.1899 91.0186 40.0332 90.8838 39.8926C90.749 39.749 90.5586 39.6772 90.3125 39.6772C90.1426 39.6772 89.999 39.7168 89.8818 39.7959C89.7646 39.875 89.6768 39.9805 89.6182 40.1123C89.5596 40.2412 89.5303 40.3833 89.5303 40.5386C89.5303 40.6704 89.5625 40.8066 89.627 40.9473C89.6914 41.0879 89.7808 41.2344 89.895 41.3867C90.0093 41.5391 90.1396 41.7002 90.2861 41.8701L93.314 45.5H92.3384L89.8555 42.5293C89.6357 42.2715 89.4395 42.0356 89.2666 41.8218C89.0938 41.605 88.9575 41.3955 88.8579 41.1934C88.7612 40.9912 88.7129 40.7817 88.7129 40.5649C88.7129 40.231 88.7788 39.9497 88.9106 39.7212C89.0454 39.4897 89.2329 39.314 89.4731 39.1938C89.7134 39.0737 89.9946 39.0137 90.3169 39.0137C90.6304 39.0137 90.8999 39.0767 91.1255 39.2026C91.354 39.3257 91.5298 39.4897 91.6528 39.6948C91.7759 39.897 91.8374 40.1196 91.8374 40.3628C91.8374 40.5679 91.8008 40.7524 91.7275 40.9165C91.6543 41.0776 91.5518 41.2256 91.4199 41.3604C91.291 41.4951 91.1401 41.627 90.9673 41.7559L89.6973 42.7007C89.4863 42.856 89.3325 43.0039 89.2358 43.1445C89.1392 43.2852 89.0762 43.4097 89.0469 43.5181C89.0205 43.6265 89.0073 43.7129 89.0073 43.7773C89.0073 43.9854 89.0527 44.1758 89.1436 44.3486C89.2344 44.5215 89.3721 44.6606 89.5566 44.7661C89.7441 44.8687 89.9785 44.9199 90.2598 44.9199C90.5059 44.9199 90.7446 44.8643 90.9761 44.7529C91.2104 44.6387 91.4199 44.4775 91.6045 44.2695C91.7891 44.0586 91.9355 43.8081 92.0439 43.5181C92.1553 43.2251 92.2109 42.9014 92.2109 42.5469H92.9404C92.9404 42.8369 92.9126 43.1108 92.8569 43.3687C92.8013 43.6265 92.7148 43.8667 92.5977 44.0894C92.4834 44.3091 92.3369 44.5098 92.1582 44.6914C92.1318 44.7178 92.1113 44.7485 92.0967 44.7837C92.082 44.8188 92.0615 44.8496 92.0352 44.876C91.8154 45.1133 91.5444 45.292 91.2222 45.4121C90.9028 45.5293 90.582 45.5879 90.2598 45.5879C89.835 45.5879 89.4673 45.5103 89.1567 45.355C88.8491 45.1997 88.6118 44.9858 88.4448 44.7134C88.2778 44.4409 88.1943 44.1289 88.1943 43.7773C88.1943 43.5078 88.2515 43.2705 88.3657 43.0654C88.4829 42.8604 88.6426 42.6685 88.8447 42.4897C89.0498 42.311 89.2842 42.1309 89.5479 41.9492ZM99.73 43.8828C99.73 43.7334 99.7065 43.6016 99.6597 43.4873C99.6157 43.3701 99.5366 43.2646 99.4224 43.1709C99.311 43.0771 99.1558 42.9878 98.9565 42.9028C98.7603 42.8179 98.5112 42.7314 98.2095 42.6436C97.8931 42.5498 97.6074 42.4458 97.3525 42.3315C97.0977 42.2144 96.8794 42.0811 96.6978 41.9316C96.5161 41.7822 96.377 41.6108 96.2803 41.4175C96.1836 41.2241 96.1353 41.0029 96.1353 40.7539C96.1353 40.5049 96.1865 40.2749 96.2891 40.064C96.3916 39.853 96.5381 39.6699 96.7285 39.5146C96.9219 39.3564 97.1519 39.2334 97.4185 39.1455C97.6851 39.0576 97.9824 39.0137 98.3105 39.0137C98.791 39.0137 99.1982 39.106 99.5322 39.2905C99.8691 39.4722 100.125 39.7109 100.301 40.0068C100.477 40.2998 100.565 40.6133 100.565 40.9473H99.7212C99.7212 40.707 99.6699 40.4946 99.5674 40.3101C99.4648 40.1226 99.3096 39.9761 99.1016 39.8706C98.8936 39.7622 98.6299 39.708 98.3105 39.708C98.0088 39.708 97.7598 39.7534 97.5635 39.8442C97.3672 39.9351 97.2207 40.0581 97.124 40.2134C97.0303 40.3687 96.9834 40.5459 96.9834 40.7451C96.9834 40.8799 97.0112 41.0029 97.0669 41.1143C97.1255 41.2227 97.2148 41.3237 97.335 41.4175C97.458 41.5112 97.6133 41.5977 97.8008 41.6768C97.9912 41.7559 98.2183 41.832 98.4819 41.9053C98.8452 42.0078 99.1587 42.1221 99.4224 42.248C99.686 42.374 99.9028 42.5161 100.073 42.6743C100.246 42.8296 100.373 43.0068 100.455 43.2061C100.54 43.4023 100.583 43.625 100.583 43.874C100.583 44.1348 100.53 44.3706 100.424 44.5815C100.319 44.7925 100.168 44.9727 99.9717 45.1221C99.7754 45.2715 99.5396 45.3872 99.2642 45.4692C98.9917 45.5483 98.687 45.5879 98.3501 45.5879C98.0542 45.5879 97.7627 45.5469 97.4756 45.4648C97.1914 45.3828 96.9321 45.2598 96.6978 45.0957C96.4663 44.9316 96.2803 44.7295 96.1396 44.4893C96.002 44.2461 95.9331 43.9648 95.9331 43.6455H96.7769C96.7769 43.8652 96.8193 44.0542 96.9043 44.2124C96.9893 44.3677 97.105 44.4966 97.2515 44.5991C97.4009 44.7017 97.5693 44.7778 97.7568 44.8276C97.9473 44.8745 98.145 44.8979 98.3501 44.8979C98.646 44.8979 98.8965 44.8569 99.1016 44.7749C99.3066 44.6929 99.4619 44.5757 99.5674 44.4233C99.6758 44.271 99.73 44.0908 99.73 43.8828ZM102.349 41.6899V45.5H101.532V40.7451H102.305L102.349 41.6899ZM102.182 42.9424L101.804 42.9292C101.807 42.604 101.85 42.3037 101.932 42.0283C102.014 41.75 102.135 41.5083 102.296 41.3032C102.458 41.0981 102.658 40.9399 102.898 40.8286C103.139 40.7144 103.417 40.6572 103.733 40.6572C103.956 40.6572 104.161 40.6895 104.349 40.7539C104.536 40.8154 104.699 40.9136 104.836 41.0483C104.974 41.1831 105.081 41.356 105.157 41.5669C105.233 41.7778 105.271 42.0327 105.271 42.3315V45.5H104.458V42.3711C104.458 42.1221 104.416 41.9229 104.331 41.7734C104.249 41.624 104.132 41.5156 103.979 41.4482C103.827 41.3779 103.648 41.3428 103.443 41.3428C103.203 41.3428 103.002 41.3853 102.841 41.4702C102.68 41.5552 102.551 41.6724 102.455 41.8218C102.358 41.9712 102.288 42.1426 102.244 42.3359C102.203 42.5264 102.182 42.7285 102.182 42.9424ZM105.263 42.4941L104.718 42.6611C104.721 42.4004 104.763 42.1499 104.845 41.9097C104.93 41.6694 105.052 41.4556 105.21 41.2681C105.371 41.0806 105.569 40.9326 105.803 40.8242C106.038 40.7129 106.306 40.6572 106.607 40.6572C106.862 40.6572 107.088 40.6909 107.284 40.7583C107.483 40.8257 107.65 40.9297 107.785 41.0703C107.923 41.208 108.027 41.3853 108.097 41.6021C108.167 41.8188 108.203 42.0767 108.203 42.3755V45.5H107.385V42.3667C107.385 42.1001 107.343 41.8936 107.258 41.7471C107.176 41.5977 107.059 41.4937 106.906 41.4351C106.757 41.3735 106.578 41.3428 106.37 41.3428C106.191 41.3428 106.033 41.3735 105.896 41.4351C105.758 41.4966 105.642 41.5815 105.548 41.6899C105.455 41.7954 105.383 41.917 105.333 42.0547C105.286 42.1924 105.263 42.3389 105.263 42.4941ZM112.237 44.687V42.2393C112.237 42.0518 112.199 41.8892 112.123 41.7515C112.049 41.6108 111.938 41.5024 111.789 41.4263C111.639 41.3501 111.455 41.312 111.235 41.312C111.03 41.312 110.85 41.3472 110.694 41.4175C110.542 41.4878 110.422 41.5801 110.334 41.6943C110.249 41.8086 110.207 41.9316 110.207 42.0635H109.394C109.394 41.8936 109.438 41.7251 109.525 41.5581C109.613 41.3911 109.739 41.2402 109.903 41.1055C110.07 40.9678 110.27 40.8594 110.501 40.7803C110.735 40.6982 110.996 40.6572 111.283 40.6572C111.629 40.6572 111.934 40.7158 112.197 40.833C112.464 40.9502 112.672 41.1274 112.821 41.3647C112.974 41.5991 113.05 41.8936 113.05 42.248V44.4629C113.05 44.6211 113.063 44.7896 113.089 44.9683C113.119 45.147 113.161 45.3008 113.217 45.4297V45.5H112.369C112.328 45.4062 112.295 45.2817 112.272 45.1265C112.249 44.9683 112.237 44.8218 112.237 44.687ZM112.377 42.6172L112.386 43.1885H111.564C111.333 43.1885 111.126 43.2075 110.945 43.2456C110.763 43.2808 110.611 43.335 110.488 43.4082C110.365 43.4814 110.271 43.5737 110.207 43.6851C110.142 43.7935 110.11 43.9209 110.11 44.0674C110.11 44.2168 110.144 44.353 110.211 44.4761C110.278 44.5991 110.379 44.6973 110.514 44.7705C110.652 44.8408 110.82 44.876 111.02 44.876C111.269 44.876 111.488 44.8232 111.679 44.7178C111.869 44.6123 112.02 44.4834 112.131 44.3311C112.246 44.1787 112.307 44.0308 112.316 43.8872L112.663 44.2783C112.643 44.4014 112.587 44.5376 112.496 44.687C112.405 44.8364 112.284 44.98 112.131 45.1177C111.982 45.2524 111.803 45.3652 111.595 45.4561C111.39 45.5439 111.159 45.5879 110.901 45.5879C110.579 45.5879 110.296 45.5249 110.053 45.3989C109.812 45.2729 109.625 45.1045 109.49 44.8936C109.358 44.6797 109.292 44.4409 109.292 44.1772C109.292 43.9224 109.342 43.6982 109.442 43.5049C109.542 43.3086 109.685 43.146 109.873 43.0171C110.06 42.8853 110.286 42.7856 110.549 42.7183C110.813 42.6509 111.107 42.6172 111.433 42.6172H112.377ZM115.142 41.4922V45.5H114.329V40.7451H115.12L115.142 41.4922ZM116.627 40.7188L116.623 41.4746C116.555 41.46 116.491 41.4512 116.429 41.4482C116.371 41.4424 116.303 41.4395 116.227 41.4395C116.04 41.4395 115.874 41.4688 115.73 41.5273C115.587 41.5859 115.465 41.668 115.366 41.7734C115.266 41.8789 115.187 42.0049 115.128 42.1514C115.073 42.2949 115.036 42.4531 115.019 42.626L114.79 42.7578C114.79 42.4707 114.818 42.2012 114.874 41.9492C114.932 41.6973 115.021 41.4746 115.142 41.2812C115.262 41.085 115.414 40.9326 115.599 40.8242C115.786 40.7129 116.009 40.6572 116.267 40.6572C116.325 40.6572 116.393 40.6646 116.469 40.6792C116.545 40.6909 116.598 40.7041 116.627 40.7188ZM119.589 40.7451V41.3691H117.018V40.7451H119.589ZM117.888 39.5894H118.701V44.3223C118.701 44.4834 118.726 44.605 118.776 44.687C118.826 44.769 118.89 44.8232 118.969 44.8496C119.048 44.876 119.133 44.8892 119.224 44.8892C119.292 44.8892 119.362 44.8833 119.435 44.8716C119.511 44.8569 119.568 44.8452 119.606 44.8364L119.611 45.5C119.546 45.5205 119.461 45.5396 119.356 45.5571C119.253 45.5776 119.129 45.5879 118.982 45.5879C118.783 45.5879 118.6 45.5483 118.433 45.4692C118.266 45.3901 118.133 45.2583 118.033 45.0737C117.937 44.8862 117.888 44.6343 117.888 44.3179V39.5894ZM125.086 39.1016V45.5H124.251V39.1016H125.086ZM127.143 39.1016V39.7959H122.199V39.1016H127.143ZM127.314 43.1753V43.0742C127.314 42.7314 127.364 42.4136 127.464 42.1206C127.563 41.8247 127.707 41.5684 127.895 41.3516C128.082 41.1318 128.309 40.9619 128.576 40.8418C128.842 40.7188 129.141 40.6572 129.472 40.6572C129.806 40.6572 130.106 40.7188 130.373 40.8418C130.643 40.9619 130.871 41.1318 131.059 41.3516C131.249 41.5684 131.394 41.8247 131.494 42.1206C131.593 42.4136 131.643 42.7314 131.643 43.0742V43.1753C131.643 43.5181 131.593 43.8359 131.494 44.1289C131.394 44.4219 131.249 44.6782 131.059 44.8979C130.871 45.1147 130.644 45.2847 130.377 45.4077C130.114 45.5278 129.815 45.5879 129.481 45.5879C129.147 45.5879 128.847 45.5278 128.58 45.4077C128.313 45.2847 128.085 45.1147 127.895 44.8979C127.707 44.6782 127.563 44.4219 127.464 44.1289C127.364 43.8359 127.314 43.5181 127.314 43.1753ZM128.127 43.0742V43.1753C128.127 43.4126 128.155 43.6367 128.211 43.8477C128.267 44.0557 128.35 44.2402 128.461 44.4014C128.576 44.5625 128.718 44.6899 128.888 44.7837C129.058 44.8745 129.255 44.9199 129.481 44.9199C129.704 44.9199 129.898 44.8745 130.065 44.7837C130.235 44.6899 130.376 44.5625 130.487 44.4014C130.599 44.2402 130.682 44.0557 130.738 43.8477C130.796 43.6367 130.826 43.4126 130.826 43.1753V43.0742C130.826 42.8398 130.796 42.6187 130.738 42.4106C130.682 42.1997 130.597 42.0137 130.483 41.8525C130.372 41.6885 130.231 41.5596 130.061 41.4658C129.894 41.3721 129.698 41.3252 129.472 41.3252C129.25 41.3252 129.053 41.3721 128.883 41.4658C128.716 41.5596 128.576 41.6885 128.461 41.8525C128.35 42.0137 128.267 42.1997 128.211 42.4106C128.155 42.6187 128.127 42.8398 128.127 43.0742ZM133.48 38.75V45.5H132.663V38.75H133.48ZM136.385 40.7451L134.311 42.9644L133.15 44.1685L133.084 43.3027L133.915 42.3096L135.392 40.7451H136.385ZM135.642 45.5L133.946 43.2324L134.368 42.5073L136.6 45.5H135.642ZM139.109 45.5879C138.778 45.5879 138.478 45.5322 138.208 45.4209C137.942 45.3066 137.712 45.147 137.519 44.9419C137.328 44.7368 137.182 44.4937 137.079 44.2124C136.977 43.9312 136.925 43.6235 136.925 43.2896V43.105C136.925 42.7183 136.982 42.374 137.097 42.0723C137.211 41.7676 137.366 41.5098 137.562 41.2988C137.759 41.0879 137.981 40.9282 138.23 40.8198C138.479 40.7114 138.737 40.6572 139.004 40.6572C139.344 40.6572 139.637 40.7158 139.883 40.833C140.132 40.9502 140.335 41.1143 140.494 41.3252C140.652 41.5332 140.769 41.7793 140.845 42.0635C140.921 42.3447 140.959 42.6523 140.959 42.9863V43.3511H137.409V42.6875H140.146V42.626C140.135 42.415 140.091 42.21 140.015 42.0107C139.941 41.8115 139.824 41.6475 139.663 41.5186C139.502 41.3896 139.282 41.3252 139.004 41.3252C138.819 41.3252 138.649 41.3647 138.494 41.4438C138.339 41.52 138.206 41.6343 138.094 41.7866C137.983 41.939 137.896 42.125 137.835 42.3447C137.773 42.5645 137.743 42.8179 137.743 43.105V43.2896C137.743 43.5151 137.773 43.7275 137.835 43.9268C137.899 44.123 137.992 44.2959 138.112 44.4453C138.235 44.5947 138.383 44.7119 138.556 44.7969C138.731 44.8818 138.931 44.9243 139.153 44.9243C139.44 44.9243 139.684 44.8657 139.883 44.7485C140.082 44.6313 140.256 44.4746 140.406 44.2783L140.898 44.6694C140.795 44.8247 140.665 44.9727 140.507 45.1133C140.349 45.2539 140.154 45.3682 139.922 45.4561C139.694 45.5439 139.423 45.5879 139.109 45.5879ZM142.722 41.7603V45.5H141.909V40.7451H142.678L142.722 41.7603ZM142.528 42.9424L142.19 42.9292C142.193 42.604 142.241 42.3037 142.335 42.0283C142.429 41.75 142.561 41.5083 142.73 41.3032C142.9 41.0981 143.103 40.9399 143.337 40.8286C143.574 40.7144 143.836 40.6572 144.124 40.6572C144.358 40.6572 144.569 40.6895 144.756 40.7539C144.944 40.8154 145.104 40.915 145.235 41.0527C145.37 41.1904 145.473 41.3691 145.543 41.5889C145.613 41.8057 145.648 42.0708 145.648 42.3843V45.5H144.831V42.3755C144.831 42.1265 144.794 41.9272 144.721 41.7778C144.648 41.6255 144.541 41.5156 144.4 41.4482C144.26 41.3779 144.087 41.3428 143.882 41.3428C143.68 41.3428 143.495 41.3853 143.328 41.4702C143.164 41.5552 143.022 41.6724 142.902 41.8218C142.785 41.9712 142.692 42.1426 142.625 42.3359C142.561 42.5264 142.528 42.7285 142.528 42.9424ZM154.161 39.1016V45.5H153.308L150.087 40.5649V45.5H149.239V39.1016H150.087L153.321 44.0498V39.1016H154.161ZM158.344 44.687V42.2393C158.344 42.0518 158.306 41.8892 158.23 41.7515C158.157 41.6108 158.045 41.5024 157.896 41.4263C157.747 41.3501 157.562 41.312 157.342 41.312C157.137 41.312 156.957 41.3472 156.802 41.4175C156.649 41.4878 156.529 41.5801 156.441 41.6943C156.356 41.8086 156.314 41.9316 156.314 42.0635H155.501C155.501 41.8936 155.545 41.7251 155.633 41.5581C155.721 41.3911 155.847 41.2402 156.011 41.1055C156.178 40.9678 156.377 40.8594 156.608 40.7803C156.843 40.6982 157.104 40.6572 157.391 40.6572C157.736 40.6572 158.041 40.7158 158.305 40.833C158.571 40.9502 158.779 41.1274 158.929 41.3647C159.081 41.5991 159.157 41.8936 159.157 42.248V44.4629C159.157 44.6211 159.17 44.7896 159.197 44.9683C159.226 45.147 159.269 45.3008 159.324 45.4297V45.5H158.476C158.435 45.4062 158.403 45.2817 158.379 45.1265C158.356 44.9683 158.344 44.8218 158.344 44.687ZM158.485 42.6172L158.494 43.1885H157.672C157.44 43.1885 157.234 43.2075 157.052 43.2456C156.871 43.2808 156.718 43.335 156.595 43.4082C156.472 43.4814 156.378 43.5737 156.314 43.6851C156.25 43.7935 156.217 43.9209 156.217 44.0674C156.217 44.2168 156.251 44.353 156.318 44.4761C156.386 44.5991 156.487 44.6973 156.622 44.7705C156.759 44.8408 156.928 44.876 157.127 44.876C157.376 44.876 157.596 44.8232 157.786 44.7178C157.977 44.6123 158.127 44.4834 158.239 44.3311C158.353 44.1787 158.415 44.0308 158.423 43.8872L158.771 44.2783C158.75 44.4014 158.694 44.5376 158.604 44.687C158.513 44.8364 158.391 44.98 158.239 45.1177C158.089 45.2524 157.911 45.3652 157.703 45.4561C157.498 45.5439 157.266 45.5879 157.008 45.5879C156.686 45.5879 156.403 45.5249 156.16 45.3989C155.92 45.2729 155.732 45.1045 155.598 44.8936C155.466 44.6797 155.4 44.4409 155.4 44.1772C155.4 43.9224 155.45 43.6982 155.549 43.5049C155.649 43.3086 155.792 43.146 155.98 43.0171C156.167 42.8853 156.393 42.7856 156.657 42.7183C156.92 42.6509 157.215 42.6172 157.54 42.6172H158.485ZM161.245 41.6899V45.5H160.427V40.7451H161.201L161.245 41.6899ZM161.078 42.9424L160.7 42.9292C160.703 42.604 160.745 42.3037 160.827 42.0283C160.909 41.75 161.031 41.5083 161.192 41.3032C161.353 41.0981 161.554 40.9399 161.794 40.8286C162.034 40.7144 162.312 40.6572 162.629 40.6572C162.852 40.6572 163.057 40.6895 163.244 40.7539C163.432 40.8154 163.594 40.9136 163.732 41.0483C163.87 41.1831 163.977 41.356 164.053 41.5669C164.129 41.7778 164.167 42.0327 164.167 42.3315V45.5H163.354V42.3711C163.354 42.1221 163.312 41.9229 163.227 41.7734C163.145 41.624 163.027 41.5156 162.875 41.4482C162.723 41.3779 162.544 41.3428 162.339 41.3428C162.099 41.3428 161.898 41.3853 161.737 41.4702C161.576 41.5552 161.447 41.6724 161.35 41.8218C161.253 41.9712 161.183 42.1426 161.139 42.3359C161.098 42.5264 161.078 42.7285 161.078 42.9424ZM164.158 42.4941L163.613 42.6611C163.616 42.4004 163.659 42.1499 163.741 41.9097C163.826 41.6694 163.947 41.4556 164.105 41.2681C164.267 41.0806 164.464 40.9326 164.699 40.8242C164.933 40.7129 165.201 40.6572 165.503 40.6572C165.758 40.6572 165.983 40.6909 166.18 40.7583C166.379 40.8257 166.546 40.9297 166.681 41.0703C166.818 41.208 166.922 41.3853 166.993 41.6021C167.063 41.8188 167.098 42.0767 167.098 42.3755V45.5H166.281V42.3667C166.281 42.1001 166.238 41.8936 166.153 41.7471C166.071 41.5977 165.954 41.4937 165.802 41.4351C165.652 41.3735 165.474 41.3428 165.266 41.3428C165.087 41.3428 164.929 41.3735 164.791 41.4351C164.653 41.4966 164.538 41.5815 164.444 41.6899C164.35 41.7954 164.278 41.917 164.229 42.0547C164.182 42.1924 164.158 42.3389 164.158 42.4941ZM169.212 40.7451V45.5H168.395V40.7451H169.212ZM168.333 39.4839C168.333 39.3521 168.373 39.2407 168.452 39.1499C168.534 39.0591 168.654 39.0137 168.812 39.0137C168.967 39.0137 169.086 39.0591 169.168 39.1499C169.253 39.2407 169.295 39.3521 169.295 39.4839C169.295 39.6099 169.253 39.7183 169.168 39.8091C169.086 39.897 168.967 39.9409 168.812 39.9409C168.654 39.9409 168.534 39.897 168.452 39.8091C168.373 39.7183 168.333 39.6099 168.333 39.4839ZM171.33 41.7603V45.5H170.517V40.7451H171.286L171.33 41.7603ZM171.137 42.9424L170.798 42.9292C170.801 42.604 170.85 42.3037 170.943 42.0283C171.037 41.75 171.169 41.5083 171.339 41.3032C171.509 41.0981 171.711 40.9399 171.945 40.8286C172.183 40.7144 172.445 40.6572 172.732 40.6572C172.966 40.6572 173.177 40.6895 173.365 40.7539C173.552 40.8154 173.712 40.915 173.844 41.0527C173.979 41.1904 174.081 41.3691 174.151 41.5889C174.222 41.8057 174.257 42.0708 174.257 42.3843V45.5H173.439V42.3755C173.439 42.1265 173.403 41.9272 173.33 41.7778C173.256 41.6255 173.149 41.5156 173.009 41.4482C172.868 41.3779 172.695 41.3428 172.49 41.3428C172.288 41.3428 172.104 41.3853 171.937 41.4702C171.772 41.5552 171.63 41.6724 171.51 41.8218C171.393 41.9712 171.301 42.1426 171.233 42.3359C171.169 42.5264 171.137 42.7285 171.137 42.9424ZM178.572 40.7451H179.311V45.3989C179.311 45.8179 179.226 46.1753 179.056 46.4712C178.886 46.7671 178.648 46.9912 178.344 47.1436C178.042 47.2988 177.693 47.3765 177.298 47.3765C177.134 47.3765 176.94 47.3501 176.718 47.2974C176.498 47.2476 176.281 47.1611 176.067 47.0381C175.856 46.918 175.679 46.7554 175.536 46.5503L175.962 46.0669C176.161 46.3071 176.369 46.4741 176.586 46.5679C176.806 46.6616 177.022 46.7085 177.236 46.7085C177.494 46.7085 177.717 46.6602 177.904 46.5635C178.092 46.4668 178.237 46.3232 178.339 46.1328C178.445 45.9453 178.498 45.7139 178.498 45.4385V41.791L178.572 40.7451ZM175.298 43.1753V43.083C175.298 42.7197 175.341 42.3901 175.426 42.0942C175.514 41.7954 175.638 41.5391 175.799 41.3252C175.963 41.1113 176.161 40.9473 176.393 40.833C176.624 40.7158 176.885 40.6572 177.175 40.6572C177.474 40.6572 177.734 40.71 177.957 40.8154C178.183 40.918 178.373 41.0688 178.528 41.2681C178.687 41.4644 178.811 41.7017 178.902 41.98C178.993 42.2583 179.056 42.5732 179.091 42.9248V43.3291C179.059 43.6777 178.996 43.9912 178.902 44.2695C178.811 44.5479 178.687 44.7852 178.528 44.9814C178.373 45.1777 178.183 45.3286 177.957 45.4341C177.731 45.5366 177.468 45.5879 177.166 45.5879C176.882 45.5879 176.624 45.5278 176.393 45.4077C176.164 45.2876 175.968 45.1191 175.804 44.9023C175.64 44.6855 175.514 44.4307 175.426 44.1377C175.341 43.8418 175.298 43.521 175.298 43.1753ZM176.111 43.083V43.1753C176.111 43.4126 176.135 43.6353 176.182 43.8433C176.231 44.0513 176.306 44.2344 176.406 44.3926C176.508 44.5508 176.639 44.6753 176.797 44.7661C176.955 44.854 177.144 44.8979 177.364 44.8979C177.633 44.8979 177.856 44.8408 178.032 44.7266C178.208 44.6123 178.347 44.4614 178.449 44.2739C178.555 44.0864 178.637 43.8828 178.695 43.6631V42.604C178.663 42.4429 178.613 42.2876 178.546 42.1382C178.481 41.9858 178.396 41.8511 178.291 41.7339C178.188 41.6138 178.061 41.5186 177.909 41.4482C177.756 41.3779 177.578 41.3428 177.373 41.3428C177.15 41.3428 176.958 41.3896 176.797 41.4834C176.639 41.5742 176.508 41.7002 176.406 41.8613C176.306 42.0195 176.231 42.2041 176.182 42.415C176.135 42.623 176.111 42.8457 176.111 43.083Z" fill="white"/>
<defs>
<filter id="filter0_f_33_417" x="0" y="0" width="60" height="60" filterUnits="userSpaceOnUse" color-interpolation-filters="sRGB">
<feFlood flood-opacity="0" result="BackgroundImageFix"/>
<feBlend mode="normal" in="SourceGraphic" in2="BackgroundImageFix" result="shape"/>
<feGaussianBlur stdDeviation="5" result="effect1_foregroundBlur_33_417"/>
</filter>
<linearGradient id="paint0_linear_33_417" x1="30" y1="8.125" x2="30" y2="50" gradientUnits="userSpaceOnUse">
<stop stop-color="#BDFCFE" stop-opacity="0"/>
<stop offset="0.395833" stop-color="#78A1E8" stop-opacity="0"/>
<stop offset="0.856716" stop-color="#2737CF" stop-opacity="0"/>
<stop offset="1" stop-color="#BDFCFE"/>
</linearGradient>
<linearGradient id="paint1_linear_33_417" x1="30" y1="10" x2="30" y2="50" gradientUnits="userSpaceOnUse">
<stop stop-color="#BDFCFE" stop-opacity="0.15"/>
<stop offset="0.188251" stop-color="white" stop-opacity="0"/>
</linearGradient>
<linearGradient id="paint2_linear_33_417" x1="28" y1="0" x2="28" y2="54" gradientUnits="userSpaceOnUse">
<stop offset="0.481481" stop-color="#026DFF" stop-opacity="0"/>
<stop offset="0.736111" stop-color="#026DFF"/>
<stop offset="0.949074" stop-color="#BC00FF"/>
</linearGradient>
</defs>
</svg>
